<mxfile host="app.diagrams.net" modified="2020-11-23T01:28:00.719Z" agent="5.0 (Windows NT 10.0; Win64; x64) AppleWebKit/537.36 (KHTML, like Gecko) Chrome/79.0.3945.130 Safari/537.36" etag="_FIV2-UYLqEV8pgwZoS6" version="13.10.1" type="github">
  <diagram id="xIByhH_l2H_BVhoeAV0h" name="Page-1">
    <mxGraphModel dx="868" dy="482" grid="0" gridSize="10" guides="1" tooltips="1" connect="1" arrows="1" fold="1" page="1" pageScale="1" pageWidth="827" pageHeight="1169" math="0" shadow="0">
      <root>
        <mxCell id="0" />
        <mxCell id="1" parent="0" />
        <mxCell id="uQVgwpU6qAejZQdFhMqO-7" style="edgeStyle=orthogonalEdgeStyle;rounded=0;orthogonalLoop=1;jettySize=auto;html=1;exitX=0.5;exitY=1;exitDx=0;exitDy=0;entryX=0.5;entryY=0;entryDx=0;entryDy=0;" edge="1" parent="1" source="uQVgwpU6qAejZQdFhMqO-1" target="uQVgwpU6qAejZQdFhMqO-6">
          <mxGeometry relative="1" as="geometry" />
        </mxCell>
        <mxCell id="uQVgwpU6qAejZQdFhMqO-1" value="输入模型名称" style="rounded=0;whiteSpace=wrap;html=1;" vertex="1" parent="1">
          <mxGeometry x="145" y="420" width="160" height="40" as="geometry" />
        </mxCell>
        <mxCell id="uQVgwpU6qAejZQdFhMqO-3" style="edgeStyle=orthogonalEdgeStyle;rounded=0;orthogonalLoop=1;jettySize=auto;html=1;exitX=0.5;exitY=1;exitDx=0;exitDy=0;" edge="1" parent="1" source="uQVgwpU6qAejZQdFhMqO-2" target="uQVgwpU6qAejZQdFhMqO-1">
          <mxGeometry relative="1" as="geometry" />
        </mxCell>
        <mxCell id="uQVgwpU6qAejZQdFhMqO-2" value="开始" style="rounded=1;whiteSpace=wrap;html=1;" vertex="1" parent="1">
          <mxGeometry x="180" y="360" width="90" height="30" as="geometry" />
        </mxCell>
        <mxCell id="uQVgwpU6qAejZQdFhMqO-9" style="edgeStyle=orthogonalEdgeStyle;rounded=0;orthogonalLoop=1;jettySize=auto;html=1;exitX=0.5;exitY=1;exitDx=0;exitDy=0;" edge="1" parent="1" source="uQVgwpU6qAejZQdFhMqO-4" target="uQVgwpU6qAejZQdFhMqO-5">
          <mxGeometry relative="1" as="geometry" />
        </mxCell>
        <mxCell id="uQVgwpU6qAejZQdFhMqO-4" value="绑定csv数据文件并给每个文件打标签" style="rounded=0;whiteSpace=wrap;html=1;" vertex="1" parent="1">
          <mxGeometry x="145" y="565" width="160" height="40" as="geometry" />
        </mxCell>
        <mxCell id="uQVgwpU6qAejZQdFhMqO-12" style="edgeStyle=orthogonalEdgeStyle;rounded=0;orthogonalLoop=1;jettySize=auto;html=1;exitX=1;exitY=0.5;exitDx=0;exitDy=0;entryX=0;entryY=0.5;entryDx=0;entryDy=0;" edge="1" parent="1" source="uQVgwpU6qAejZQdFhMqO-5" target="uQVgwpU6qAejZQdFhMqO-11">
          <mxGeometry relative="1" as="geometry" />
        </mxCell>
        <mxCell id="uQVgwpU6qAejZQdFhMqO-5" value="执行特征工程" style="rounded=0;whiteSpace=wrap;html=1;" vertex="1" parent="1">
          <mxGeometry x="145" y="640" width="160" height="40" as="geometry" />
        </mxCell>
        <mxCell id="uQVgwpU6qAejZQdFhMqO-8" style="edgeStyle=orthogonalEdgeStyle;rounded=0;orthogonalLoop=1;jettySize=auto;html=1;exitX=0.5;exitY=1;exitDx=0;exitDy=0;entryX=0.5;entryY=0;entryDx=0;entryDy=0;" edge="1" parent="1" source="uQVgwpU6qAejZQdFhMqO-6" target="uQVgwpU6qAejZQdFhMqO-4">
          <mxGeometry relative="1" as="geometry" />
        </mxCell>
        <mxCell id="uQVgwpU6qAejZQdFhMqO-6" value="选择阀类型" style="rounded=0;whiteSpace=wrap;html=1;" vertex="1" parent="1">
          <mxGeometry x="145" y="490" width="160" height="40" as="geometry" />
        </mxCell>
        <mxCell id="uQVgwpU6qAejZQdFhMqO-15" style="edgeStyle=orthogonalEdgeStyle;rounded=0;orthogonalLoop=1;jettySize=auto;html=1;entryX=0.5;entryY=1;entryDx=0;entryDy=0;" edge="1" parent="1" source="uQVgwpU6qAejZQdFhMqO-11" target="uQVgwpU6qAejZQdFhMqO-13">
          <mxGeometry relative="1" as="geometry" />
        </mxCell>
        <mxCell id="uQVgwpU6qAejZQdFhMqO-17" style="edgeStyle=orthogonalEdgeStyle;rounded=0;orthogonalLoop=1;jettySize=auto;html=1;entryX=1;entryY=0.5;entryDx=0;entryDy=0;" edge="1" parent="1" source="uQVgwpU6qAejZQdFhMqO-11" target="uQVgwpU6qAejZQdFhMqO-14">
          <mxGeometry relative="1" as="geometry">
            <Array as="points">
              <mxPoint x="500" y="650" />
              <mxPoint x="500" y="498" />
            </Array>
          </mxGeometry>
        </mxCell>
        <mxCell id="uQVgwpU6qAejZQdFhMqO-11" value="&lt;span&gt;特征预览？&lt;/span&gt;" style="rhombus;whiteSpace=wrap;html=1;" vertex="1" parent="1">
          <mxGeometry x="385" y="620" width="80" height="80" as="geometry" />
        </mxCell>
        <mxCell id="uQVgwpU6qAejZQdFhMqO-16" style="edgeStyle=orthogonalEdgeStyle;rounded=0;orthogonalLoop=1;jettySize=auto;html=1;exitX=0.5;exitY=0;exitDx=0;exitDy=0;entryX=0.5;entryY=1;entryDx=0;entryDy=0;" edge="1" parent="1" source="uQVgwpU6qAejZQdFhMqO-13" target="uQVgwpU6qAejZQdFhMqO-14">
          <mxGeometry relative="1" as="geometry" />
        </mxCell>
        <mxCell id="uQVgwpU6qAejZQdFhMqO-13" value="执行特征预览" style="rounded=0;whiteSpace=wrap;html=1;" vertex="1" parent="1">
          <mxGeometry x="360" y="550" width="130" height="40" as="geometry" />
        </mxCell>
        <mxCell id="uQVgwpU6qAejZQdFhMqO-21" style="edgeStyle=orthogonalEdgeStyle;rounded=0;orthogonalLoop=1;jettySize=auto;html=1;" edge="1" parent="1" source="uQVgwpU6qAejZQdFhMqO-14" target="uQVgwpU6qAejZQdFhMqO-19">
          <mxGeometry relative="1" as="geometry" />
        </mxCell>
        <mxCell id="uQVgwpU6qAejZQdFhMqO-14" value="选择特征" style="rounded=0;whiteSpace=wrap;html=1;" vertex="1" parent="1">
          <mxGeometry x="360" y="480" width="130" height="40" as="geometry" />
        </mxCell>
        <mxCell id="uQVgwpU6qAejZQdFhMqO-29" style="edgeStyle=orthogonalEdgeStyle;rounded=0;orthogonalLoop=1;jettySize=auto;html=1;exitX=1;exitY=0.25;exitDx=0;exitDy=0;" edge="1" parent="1" source="uQVgwpU6qAejZQdFhMqO-19" target="uQVgwpU6qAejZQdFhMqO-22">
          <mxGeometry relative="1" as="geometry" />
        </mxCell>
        <mxCell id="uQVgwpU6qAejZQdFhMqO-19" value="选择 算法" style="rounded=0;whiteSpace=wrap;html=1;" vertex="1" parent="1">
          <mxGeometry x="360" y="410" width="130" height="40" as="geometry" />
        </mxCell>
        <mxCell id="uQVgwpU6qAejZQdFhMqO-30" style="edgeStyle=orthogonalEdgeStyle;rounded=0;orthogonalLoop=1;jettySize=auto;html=1;entryX=0.5;entryY=0;entryDx=0;entryDy=0;" edge="1" parent="1" source="uQVgwpU6qAejZQdFhMqO-22" target="uQVgwpU6qAejZQdFhMqO-23">
          <mxGeometry relative="1" as="geometry" />
        </mxCell>
        <mxCell id="uQVgwpU6qAejZQdFhMqO-22" value="执行模型训练" style="rounded=0;whiteSpace=wrap;html=1;" vertex="1" parent="1">
          <mxGeometry x="580" y="400" width="130" height="40" as="geometry" />
        </mxCell>
        <mxCell id="uQVgwpU6qAejZQdFhMqO-25" value="" style="edgeStyle=orthogonalEdgeStyle;rounded=0;orthogonalLoop=1;jettySize=auto;html=1;" edge="1" parent="1" source="uQVgwpU6qAejZQdFhMqO-26" target="uQVgwpU6qAejZQdFhMqO-24">
          <mxGeometry relative="1" as="geometry" />
        </mxCell>
        <mxCell id="uQVgwpU6qAejZQdFhMqO-23" value="返回训练结果" style="rounded=0;whiteSpace=wrap;html=1;" vertex="1" parent="1">
          <mxGeometry x="580" y="481.25" width="130" height="38.75" as="geometry" />
        </mxCell>
        <mxCell id="uQVgwpU6qAejZQdFhMqO-24" value="结束" style="rounded=1;whiteSpace=wrap;html=1;" vertex="1" parent="1">
          <mxGeometry x="600" y="630" width="90" height="30" as="geometry" />
        </mxCell>
        <mxCell id="uQVgwpU6qAejZQdFhMqO-26" value="保存模型" style="rounded=0;whiteSpace=wrap;html=1;" vertex="1" parent="1">
          <mxGeometry x="585" y="565" width="120" height="35" as="geometry" />
        </mxCell>
        <mxCell id="uQVgwpU6qAejZQdFhMqO-27" value="" style="edgeStyle=orthogonalEdgeStyle;rounded=0;orthogonalLoop=1;jettySize=auto;html=1;" edge="1" parent="1" source="uQVgwpU6qAejZQdFhMqO-23" target="uQVgwpU6qAejZQdFhMqO-26">
          <mxGeometry relative="1" as="geometry">
            <mxPoint x="640" y="515" as="sourcePoint" />
            <mxPoint x="640" y="605" as="targetPoint" />
          </mxGeometry>
        </mxCell>
      </root>
    </mxGraphModel>
  </diagram>
</mxfile>
